<?xml version="1.0" encoding="utf-8"?>
<!-- Generator: Adobe Illustrator 19.0.0, SVG Export Plug-In . SVG Version: 6.00 Build 0)  -->
<svg version="1.1" id="Capa_1" xmlns="http://www.w3.org/2000/svg" xmlns:xlink="http://www.w3.org/1999/xlink" x="0px" y="0px"
	 width="150.7px" height="91.4px" viewBox="0 0 150.7 91.4" style="enable-background:new 0 0 150.7 91.4;" xml:space="preserve">
<style type="text/css">
	.st0{fill-rule:evenodd;clip-rule:evenodd;fill:#1F3465;}
</style>
<g>
	<g>
		<g>
			<g>
				<g>
					<path class="st0" d="M22.6,26.3c-0.9,0.2-3.1,0.9-3.9,1.3v4.7c0,1.3-0.1,1,1.3,1.1c7.6,0.2,11.6,1.3,17.3,4.8
						c-0.1-1.4-0.6-2.8-1.2-4c-3.8-2.8-7.4-4.1-12.1-4.5c13.3-3.2,25.2,9.6,20.8,22.7c-1.1-0.3-3.3-1.1-5.3,0.6c1,2.7,0.2,7-3.5,6.7
						c0.1,1.3-0.5,3-2.4,4.3c-2.6,1.6-6.6,2.1-8.5,0.9c-2.5,0.4-4.3-0.3-6.4-1.4v2.2c1.2,0.8,2.5,1.2,3.8,1.5l1,4.3
						c0.2,0.5,0.6,0.7,1.3,0.7h6.6c0.6,0,0.9-0.3,1.2-0.7l0.9-4.5c0.9-0.2,1.7-0.5,2.6-0.9l3.4,3c0.4,0.2,0.9,0.2,1.4-0.2l5-3.7
						c0.4-0.3,0.6-0.7,0.5-1.3l-1.9-4.1c0.6-0.7,1.1-1.4,1.6-2.2l4.5,0.4c0.5,0,0.8-0.3,1-0.9l1.9-5.9c0.2-0.5,0.1-1-0.3-1.3
						l-3.9-2.2c0.1-0.9,0-1.8,0-2.7l3.9-2.3c0.4-0.2,0.5-0.7,0.2-1.4l-2-5.9c-0.1-0.6-0.5-0.8-1-0.9l-4.5,0.5
						c-0.5-0.8-1-1.5-1.6-2.2L46,29c0.1-0.5,0-0.9-0.6-1.3l-5-3.6c-0.5-0.3-0.9-0.4-1.4-0.1l-3.3,3c-0.8-0.3-1.7-0.6-2.6-0.8l-1-4.4
						c-0.2-0.5-0.6-0.7-1.2-0.7h-6.2c-0.7,0-1.1,0.3-1.2,0.7L22.6,26.3L22.6,26.3z M29.8,45.2h0.6c0.1,0,0.1,0,0.1,0.1v0.2
						c0,0.1,0,0.1-0.1,0.1h-0.6c-0.1,0-0.1,0-0.1-0.1v-0.2C29.7,45.3,29.8,45.2,29.8,45.2L29.8,45.2z M31.3,35.8
						c0.9,0.3,1.5,1.2,1.3,2.2c-0.3,0.9-1.2,1.5-2.2,1.3c-0.9-0.3-1.5-1.2-1.3-2.2C29.4,36.1,30.4,35.6,31.3,35.8L31.3,35.8z
						 M31.7,36.5c0.3,0.1,0.5,0.4,0.4,0.6c-0.1,0.3-0.4,0.5-0.7,0.4c-0.3-0.1-0.5-0.4-0.4-0.6C31.1,36.6,31.4,36.5,31.7,36.5
						L31.7,36.5z M30.1,44.2c0.7,0,1.3,0.6,1.3,1.3c0,0.7-0.6,1.3-1.3,1.3c-0.7,0-1.3-0.6-1.3-1.3C28.8,44.7,29.4,44.2,30.1,44.2
						L30.1,44.2z M30.1,44.8c0.4,0,0.6,0.3,0.6,0.6c0,0.4-0.3,0.6-0.6,0.6c-0.4,0-0.7-0.3-0.7-0.6C29.5,45.1,29.8,44.8,30.1,44.8
						L30.1,44.8z M33.5,37c1.3,0.5,2.6,1.1,3.8,1.8c0,0.3,0,0.6-0.1,0.8c-0.1,0.7-0.3,1.4-0.5,2c-1.9-0.8-5.1-0.9-7.1-0.4
						c-1.4-0.7-2.2-2.3-1.9-3.9c0,0,0.3,0.1,0.5,0.1c0.1,1.4,1.2,2.5,2.7,2.5c1.5,0,2.7-1.2,2.7-2.6C33.5,37.3,33.5,37.2,33.5,37
						L33.5,37z M32,45.4c0-1.2-0.9-1.8-2-2c-1.1-0.2-2.5-0.3-3.3-0.2c2.4-1.9,7.2-2,9.8-0.9C34.5,42.3,32.6,43.5,32,45.4L32,45.4z
						 M18.8,35.1c-0.2,0-0.3-1.1,0-1.1c3.6,0.1,6.7,0.3,10.2,1.4c-0.4,0.4-0.7,0.9-0.9,1.4C25.1,35.8,22.1,35.4,18.8,35.1L18.8,35.1
						z M18.9,37c-0.3,0-0.3-1.4,0-1.4c2.8,0.4,5.5,0.7,8.3,1.5c-0.1,0.6-0.1,1.1,0,1.7C24.4,38,21.7,37.5,18.9,37L18.9,37z
						 M18.9,39.5c-0.2-0.1-0.4-1.8,0.1-1.7c2.8,0.5,5.6,0.9,8.4,1.7c0.4,1,0.8,1.5,1.4,2.1C27,42.2,21.3,40.2,18.9,39.5L18.9,39.5z
						 M18.9,43.5c-0.2,0-0.7-3.4,0.2-3.2c2.7,0.8,5.5,1.6,8.2,1.9c-0.5,0.3-1,0.6-1.3,1c-0.9,0-1.9,0-2.8,0
						C21.8,43.3,20.3,43.4,18.9,43.5L18.9,43.5z M19,45.9c-0.5,0-0.5-1.8,0-1.8c3.5-0.4,6.7-0.5,10.2-0.2c-1,0.6-1.2,2-0.4,2.9
						C25.6,46,22.2,45.8,19,45.9L19,45.9z M18.7,49.4l0-2.5c0-0.2,0.1-0.3,0.3-0.4c1.8-0.2,3.9-0.1,5.7,0.1l0.1,0
						c-1.8,0.8-4.5,2.4-5.7,3.1c-0.1,0.1-0.3,0.1-0.4,0C18.7,49.7,18.7,49.5,18.7,49.4L18.7,49.4z M32.5,49.7
						c-0.8-0.6-1.5-1.6-1.8-2.5c0.5-0.2,0.8-0.5,1.1-0.9c-0.1,1,0.1,2.1,0.7,3c0.1,0.1,0.1,0.2,0.2,0.3C33,49.8,32.8,49.9,32.5,49.7
						L32.5,49.7z M24.5,63.5c-2,0.1-5.6-0.1-6.4-2.4c2.3-5.1,5.1-9.9,8.6-14.2c0.3,0,0.5,0.1,0.8,0.1C25.2,52.4,24.6,57.7,24.5,63.5
						L24.5,63.5z M19.1,56.7c-0.7,0.4-1.5-4.9,0-6c1.6-1.1,3.2-2.1,5-3.2l1.2-0.7c0.2,0,0.5,0.1,0.8,0.1c-0.2,0.2-0.6,0.7-0.7,0.8
						C23.1,50,20.6,54.2,19.1,56.7L19.1,56.7z M38.9,41.8c0.5,0.2-0.1,1.9-0.5,1.8c-0.4-0.1-0.8,0-1.1,0.2c0.3,0.6,0.9,1.9,1.1,2.8
						c0.1,0.3,0.2,1.1-0.2,1.4c-0.3,0.2-0.7,0.1-1.3,0.2l-0.1,0.6c0,0.1,0.2,0.1,0.2,0.2c0,0.1-0.2,0.4-0.6,0.4
						c0.1,0.2,0.2,0.3,0.2,0.6c0,0.2-0.4,0.2-0.7,0.4c-0.2,0.1-0.1,0.2-0.3,0.2c0,0-0.1,0-0.1,0c-3.5-0.6-3.7-5.1-1-6.8l0.8,0.3
						c0.2,0.1,0.2,0.1,0,0.2c-0.1,0-0.2,0.1-0.3,0.1c-0.3,0.1-0.3,0.1,0,0.2c0.3,0.1,0.7,0.2,1,0.3c0.1,0,0.1,0.1,0.2,0
						c0.1-0.1,0.1-0.3,0-0.5c0.2,0,0.3,0,0.5-0.1c0.3-0.2,0.2-0.2-0.1-0.2c-0.2,0-0.4,0.1-0.5,0l-1.1-0.3c0.4-0.4,1.3-0.8,2.3-0.7
						l0.4-1.6L38.9,41.8L38.9,41.8z M36.2,51.5c1.1,0.9,2.7,0.2,1.8,0.9c-2.9,2.2-7.2-1.6-7.8-4.9c0.1,0,0.3,0,0.4,0
						c0.6,1.3,0.8,1.8,2,2.8c0.7,0.5,1.3,0.8,2.3,0.8C35.7,51.2,35.5,50.9,36.2,51.5L36.2,51.5z M43.4,40.1c0.7,1.8,0.6,4.3-1,5.3
						c-0.6,0.3-0.8,0-0.4-0.5c0.3-0.3,0.3-1,0.2-1.4c-0.4-1.5-3.2-2.5-4.5-2.9c0.5-1.9,0.2-3.8-0.5-5.6
						C39.8,35.9,42.3,37.4,43.4,40.1L43.4,40.1z M26.3,64.1c-0.4-4.5-0.2-12.8,1.8-16.9c0.4,0.1,0.9,0.2,1.3,0.3c0,0.1,0,0.6,0,0.7
						c-0.4,6.1,2,10,5.6,11.8C34.6,63.8,29.5,64.7,26.3,64.1L26.3,64.1z M38.8,53.4c0.8,1.4-0.4,5.2-2.2,5.5
						c-4.6-1-7.3-7.1-6.9-11.4c0.1,0,0.1,0,0.2,0c0,0.2,0.1,0.5,0.1,0.7C30.9,51.5,35.1,55.2,38.8,53.4z"/>
				</g>
			</g>
			<g>
				<path class="st0" d="M74.3,45.1v-4.8l-1.5,0V39h4.1v1.3h-1.5v4.8H74.3L74.3,45.1z M114.7,41.1v-1.7c-1-0.9-2.3-0.8-3.2,0.4
					c-0.5,0.6-0.7,1.4-0.7,2.3c0,1,0.3,1.9,0.9,2.6c0.9,0.9,2,0.9,2.9,0.1v-1.5c-0.6,0.7-1.7,1.2-2.4,0.2c-0.2-0.3-0.4-0.8-0.4-1.4
					c0-0.6,0.1-1,0.4-1.4c0.6-0.8,1.4-0.6,2,0L114.7,41.1L114.7,41.1z M101.1,38.4l0.4-0.5l-0.3-0.4l-0.7,0.9L101.1,38.4L101.1,38.4
					z M85,41.1v-1.7c-1-0.9-2.3-0.8-3.2,0.4c-0.5,0.6-0.7,1.4-0.7,2.3c0,1,0.3,1.9,0.9,2.6c0.9,0.9,2,0.9,2.9,0.1v-1.5
					c-0.6,0.7-1.7,1.2-2.4,0.2c-0.2-0.3-0.4-0.8-0.4-1.4c0-0.6,0.1-1,0.4-1.4c0.6-0.8,1.4-0.6,2,0L85,41.1L85,41.1z M108.1,42.2
					v-0.5h-2V43h0.9v0.9c-0.2,0.1-0.4,0.1-0.6,0.1c-0.9,0-1.4-0.9-1.4-2c0-0.5,0.1-1,0.4-1.4c0.4-0.6,1.2-0.7,1.7-0.3
					c0.2,0.1,0.4,0.3,0.7,0.6l0.1-1.5c-0.2-0.2-0.5-0.3-0.7-0.4c-0.9-0.4-1.9-0.1-2.6,0.8c-0.5,0.6-0.7,1.4-0.7,2.3
					c0,1.9,1,3.2,2.5,3.2c0.6,0,1.2-0.3,1.8-0.6V42.2L108.1,42.2z M109.1,45.1h1.1V39l-1.1,0V45.1L109.1,45.1z M95.7,39.5v5.6h2.9
					v-1.3h-1.8V39h-1.1L95.7,39.5L95.7,39.5z M85.7,39.5v5.6h1v-3.3l2.7,3.3h0.3V39h-1v3.4L86,39l-0.3,0L85.7,39.5L85.7,39.5z
					 M77.6,39.5v5.6h2.9v-1.3h-1.8v-1.2h1.1v-1.2h-1.1v-1.1h1.8V39h-2.9L77.6,39.5L77.6,39.5z M90.4,42.1c0-1.8,1-3.2,2.4-3.2
					c1.4,0,2.4,1.5,2.4,3.2c0,1.8-1,3.2-2.4,3.2C91.4,45.3,90.4,43.8,90.4,42.1L90.4,42.1z M91.5,42.1c0,0.9,0.5,1.9,1.2,1.9
					c0.8,0,1.2-0.9,1.2-1.9c0-1-0.4-1.9-1.2-1.9C92,40.2,91.5,41.1,91.5,42.1L91.5,42.1z M98.6,42.1c0-0.5,0.1-0.9,0.2-1.3
					c0.4-1.2,1.2-2,2.2-2c1.4,0,2.4,1.5,2.4,3.2c0,1.8-1,3.2-2.4,3.2C99.6,45.3,98.6,43.8,98.6,42.1L98.6,42.1z M99.7,42.1
					c0,0.9,0.5,1.9,1.2,1.9c0.8,0,1.2-0.9,1.2-1.9c0-1-0.4-1.9-1.2-1.9S99.7,41.1,99.7,42.1L99.7,42.1z M117.4,38.8
					c1,0,1.9,0.8,2.2,2c0.1,0.4,0.2,0.8,0.2,1.3c0,1.8-1,3.2-2.4,3.2c-1.4,0-2.4-1.5-2.4-3.2C115.1,40.3,116,38.8,117.4,38.8
					L117.4,38.8z M116.2,42.1c0,0.9,0.5,1.9,1.2,1.9c0.8,0,1.2-0.9,1.2-1.9c0-1-0.4-1.9-1.2-1.9C116.7,40.2,116.2,41.1,116.2,42.1z"
					/>
				<g>
					<path class="st0" d="M128.4,50.1c-0.6-0.6-1.5-0.8-2.1,0c-0.5,0.7-0.5,2,0,2.7c0.7,0.9,1.8,0.5,2.5-0.2v1.5
						c-0.9,0.8-2.2,0.8-3.1-0.1c-1.2-1.2-1.3-3.5-0.2-4.9c0.9-1.1,2.3-1.2,3.3-0.4v1.7L128.4,50.1L128.4,50.1z M115.6,48.1l0.2-0.3
						l-0.3-0.4l-0.5,0.6H115.6L115.6,48.1z M123,49v5.6h1.2v-6.1c-0.5,0-0.7,0-1.2,0V49L123,49z M119.1,51.4l-1.8,3.1h1.3l1.1-2.1
						l1.2,2.1h1.4l-1.9-3.3l1.6-2.8h-1.3l-1,1.7l-1-1.7c-0.5,0-0.6,0-1.1,0L119.1,51.4L119.1,51.4z M113.9,49v5.6h3.1v-1.3H115v-1.2
						h1.2v-1.2H115v-1.1h1.9v-1.2c-1.1,0-1.9,0-3,0L113.9,49L113.9,49z M108.6,48.5l-1,6.1h1l0.4-2.8l1.3,2.8h0.3l1.2-2.8l0.4,2.8
						h1.1l-1-6.1h-0.2l-1.7,3.7l-1.8-3.7L108.6,48.5L108.6,48.5z M130.4,51.5c0,0.9,0.5,1.9,1.3,1.9c0.8,0,1.3-0.9,1.3-1.9
						c0-0.9-0.5-1.9-1.3-1.9C130.9,49.7,130.4,50.6,130.4,51.5L130.4,51.5z M129.2,51.5c0-1.7,1-3.2,2.5-3.2c1.5,0,2.5,1.5,2.5,3.2
						c0,1.8-1.1,3.2-2.5,3.2C130.2,54.8,129.2,53.3,129.2,51.5z"/>
					<path class="st0" d="M96.7,48.9v5.5H98c0.6,0,1.2-0.1,1.7-0.5c0.8-0.6,1.2-1.4,1.2-2.6c0-0.9-0.3-1.7-0.8-2.2
						c-0.5-0.5-1.2-0.8-2.1-0.8c-0.6,0-0.7,0-1.3,0V48.9L96.7,48.9z M101.6,48.9v5.5h3v-1.3h-1.9V52h1.2v-1.2h-1.2v-1.1h1.9v-1.2
						c-1.1,0-1.9,0-3,0V48.9L101.6,48.9z M90.1,54.5h3.1v-1.3h-1.9v-4.7h-1.2V54.5L90.1,54.5z M84.7,54.5h1.2l0.3-0.9h2l0.3,0.9h1.2
						l-2.4-6h-0.2L84.7,54.5L84.7,54.5z M86.5,52.5l0.7-1.9l0.6,1.9H86.5L86.5,52.5z M80.1,48.9v5.5h1.1v-3.3l2.8,3.3h0.3v-6h-1.1
						v3.3l-2.9-3.3h-0.3L80.1,48.9L80.1,48.9z M72.8,48.9v5.5H74v-6h-1.2V48.9L72.8,48.9z M71.5,50.1c-0.6-0.6-1.5-0.8-2.1,0
						c-0.3,0.4-0.4,0.8-0.4,1.4s0.1,1,0.4,1.3c0.7,0.9,1.8,0.5,2.5-0.2v1.5c-0.9,0.8-2.2,0.8-3.1-0.1c-0.6-0.6-1-1.5-1-2.6
						c0-0.9,0.2-1.7,0.7-2.3c0.9-1.1,2.3-1.2,3.3-0.4v1.7L71.5,50.1L71.5,50.1z M63.1,54.5h1.2l0.3-0.9h2l0.3,0.9h1.2l-2.4-6h-0.2
						L63.1,54.5L63.1,54.5z M64.9,52.5l0.7-1.9l0.6,1.9H64.9L64.9,52.5z M58.5,54.5l0-6h0.3l2.9,3.3v-3.3h1.1v6h-0.3l-2.8-3.3v3.3
						H58.5L58.5,54.5z M74.6,51.4c0-1.8,1.1-3.2,2.5-3.2c1.5,0,2.5,1.5,2.5,3.2c0,1.7-1,3.2-2.5,3.2C75.7,54.7,74.6,53.2,74.6,51.4
						L74.6,51.4z M75.8,51.4c0,0.9,0.5,1.8,1.3,1.8c0.8,0,1.3-0.9,1.3-1.8c0-0.9-0.5-1.9-1.3-1.9C76.3,49.6,75.8,50.5,75.8,51.4
						L75.8,51.4z M97.8,53.2v-3.4h0.3c0.5,0,0.9,0.2,1.2,0.5c0.3,0.3,0.4,0.7,0.4,1.3c0,0.5-0.1,1-0.4,1.3c-0.3,0.3-0.7,0.5-1.2,0.5
						H97.8z"/>
				</g>
			</g>
		</g>
	</g>
	<g>
		<g>
			<path class="st0" d="M136.5,51.6c0.9,0,1.6,0.7,1.6,1.6c0,0.9-0.7,1.6-1.6,1.6c-0.9,0-1.6-0.7-1.6-1.6
				C134.9,52.3,135.6,51.6,136.5,51.6z M136.5,51.8c-0.7,0-1.4,0.6-1.4,1.4c0,0.8,0.6,1.4,1.3,1.4c0.8,0,1.4-0.6,1.4-1.4
				C137.9,52.4,137.3,51.8,136.5,51.8z"/>
			<path class="st0" d="M136.2,53.3c0,0.2,0,0.5,0,0.7c-0.1,0-0.2,0-0.3,0c0-0.6,0-1.1,0-1.7c0,0,0,0,0,0c0.3,0,0.6,0,1,0
				c0.3,0.1,0.5,0.5,0.3,0.7c-0.1,0.1-0.1,0.1-0.3,0.2c0,0,0,0,0.1,0c0.2,0.1,0.3,0.2,0.3,0.4c0,0.1,0,0.2,0,0.4c-0.1,0-0.2,0-0.3,0
				c0-0.1,0-0.1,0-0.2c0-0.1,0-0.2,0-0.3c0-0.2-0.1-0.2-0.3-0.3C136.5,53.3,136.3,53.3,136.2,53.3z M136.2,53.1c0.1,0,0.2,0,0.3,0
				c0.1,0,0.2,0,0.3,0c0.1,0,0.2-0.1,0.2-0.3c0-0.2-0.1-0.2-0.2-0.3c-0.2-0.1-0.4,0-0.6,0C136.2,52.7,136.2,52.9,136.2,53.1z"/>
		</g>
	</g>
</g>
</svg>
